<svg width="62px" height="62px" viewBox="0 0 62 62" version="1.1" xmlns="http://www.w3.org/2000/svg" xmlns:xlink="http://www.w3.org/1999/xlink">
    <g id="Allaboard" stroke="none" stroke-width="1" fill="none" fill-rule="evenodd">
        <g id="Catalogue---Edit-Mode" transform="translate(-1183.000000, -22.000000)">
            <g id="read-mode-ico" transform="translate(1185.000000, 24.000000)">
                <circle id="Oval" stroke="#FF7A57" stroke-width="4" cx="29" cy="29" r="29"></circle>
                <g id="iconmonstr-book-15" transform="translate(12.000000, 12.000000)" fill="#FF7A57" fill-rule="nonzero">
                    <path d="M17.5,4.73725 C13.2154167,1.53475 6.685,0.245 0,0 L0,30.9995 C5.74145833,31.2095 11.3677083,32.19125 15.5560417,34.49075 C16.7897917,35.16975 18.2058333,35.16975 19.4454167,34.49075 C23.63375,32.19125 29.2585417,31.2095 35,30.9995 L35,0 C28.315,0.245 21.7845833,1.53475 17.5,4.73725 Z M2.91666667,27.66925 L2.91666667,3.68725 C10.4372917,4.368 13.8935417,6.2475 16.0416667,7.77175 L16.0416667,30.81575 C13.8177083,29.86025 9.16416667,28.182 2.91666667,27.66925 Z M32.0833333,27.66925 C25.8372917,28.182 21.1822917,29.86025 18.9583333,30.8175 L18.9583333,7.76825 C21.0772917,6.2615 24.54375,4.36975 32.0833333,3.68725 L32.0833333,27.66925 Z" id="Shape"></path>
                </g>
            </g>
        </g>
    </g>
</svg>