<svg width="58px" height="58px" viewBox="0 0 58 58" version="1.1" xmlns="http://www.w3.org/2000/svg" xmlns:xlink="http://www.w3.org/1999/xlink">
    <g id="Allaboard" stroke="none" stroke-width="1" fill="none" fill-rule="evenodd">
        <g id="Catalogue" transform="translate(-1185.000000, -21.000000)" fill="#FF7A57" fill-rule="nonzero">
            <g id="iconmonstr-edit-11" transform="translate(1185.000000, 21.000000)">
                <path d="M29,4.83333333 C42.3255,4.83333333 53.1666667,15.6745 53.1666667,29 C53.1666667,42.3255 42.3255,53.1666667 29,53.1666667 C15.6745,53.1666667 4.83333333,42.3255 4.83333333,29 C4.83333333,15.6745 15.6745,4.83333333 29,4.83333333 Z M29,0 C12.98475,0 0,12.98475 0,29 C0,45.01525 12.98475,58 29,58 C45.01525,58 58,45.01525 58,29 C58,12.98475 45.01525,0 29,0 Z M19.3478333,31.3296667 L26.854,38.8334167 L16.9166667,41.0833333 L19.3478333,31.3296667 Z M43.5,22.2333333 L29.3866667,36.5424167 L21.6485,28.80425 L35.76425,14.5 L43.5,22.2333333 L43.5,22.2333333 Z" id="Shape"></path>
            </g>
        </g>
    </g>
</svg>